<?xml version="1.0" encoding="UTF-8"?>
<!-- Generated by Pixelmator Pro 2.4.2 -->
<svg width="492" height="500" viewBox="0 0 492 500" xmlns="http://www.w3.org/2000/svg" xmlns:xlink="http://www.w3.org/1999/xlink">
    <path id="Shape" fill="#383736" fill-opacity="0.772653" fill-rule="evenodd" stroke="white" stroke-width="4" d="M 243.5 484.408783 C 231.949997 484.530762 219.800003 484.269928 216.5 483.829132 C 213.199997 483.388367 207.543533 482.359528 203.930084 481.542847 C 200.316635 480.726166 192.666641 478.433319 186.930084 476.447571 C 181.193542 474.461853 172.449997 470.856781 167.5 468.436279 C 162.550003 466.015808 155.125 461.856415 151 459.193207 C 146.875 456.530029 140.038437 451.556396 135.807632 448.140717 C 131.576828 444.725037 124.59655 438.169495 120.295891 433.572876 C 115.995232 428.976196 109.949242 421.679382 106.860374 417.357666 C 103.7715 413.03595 99.143867 405.856873 96.576744 401.404205 C 94.009628 396.951508 89.920418 388.355225 87.489624 382.301392 C 85.058823 376.247528 81.972099 367.065643 80.630234 361.897186 C 79.288368 356.728729 77.765213 348.225006 77.245438 343 C 76.72567 337.774994 76.3591 325.399994 76.430847 315.5 C 76.522896 302.798737 77.080536 294.878235 78.32518 288.59375 C 79.295311 283.695343 81.641266 274.886078 83.538414 269.017639 C 85.435555 263.14917 89.270065 253.680649 92.059547 247.97644 C 94.849037 242.272247 99.497589 233.981506 102.389671 229.552582 C 105.281754 225.123657 110.059998 218.575012 113.008003 215 C 115.956001 211.424988 121.501236 205.432465 125.330757 201.683228 C 129.160278 197.93399 135.759125 192.228302 139.994888 189.003906 C 144.230637 185.77948 151.109131 181.069336 155.280411 178.536896 C 159.451691 176.004456 166.157532 172.414795 170.182281 170.559906 C 174.207031 168.704987 182.090958 165.592834 187.702148 163.644012 C 193.313324 161.69519 201.41333 159.358704 205.702148 158.451813 C 209.990967 157.544922 216.217102 156.654785 219.53801 156.473724 C 222.858917 156.292664 226.90892 155.826569 228.53801 155.437958 C 230.167099 155.049347 232.287506 154.047089 233.25 153.210693 C 234.847946 151.822144 235 148.933105 235 119.960022 C 235 88.230011 235 88.230011 232.535187 86.615021 C 230.476151 85.265869 226.813171 84.999878 210.285187 84.999207 C 190.5 84.998413 190.5 84.998413 184.324112 82.076721 C 180.927368 80.469788 176.328079 77.27948 174.10347 74.987183 C 171.878845 72.694855 168.860443 68.370178 167.395905 65.37677 C 165.132004 60.749512 164.657806 58.227783 164.230423 48.54306 C 163.953949 42.277924 164.084015 36.3302 164.519485 35.325958 C 164.954941 34.321686 165.438293 32.07428 165.593597 30.331696 C 165.748917 28.589142 166.765762 25.439148 167.853256 23.331696 C 168.940765 21.224274 171.556168 17.834717 173.665268 15.799347 C 175.774368 13.764008 179.524994 11.215942 182 10.137024 C 185.706924 8.521088 188.262405 8.233612 196.5 8.50589 C 202 8.687683 225.670959 11.518127 249.102142 14.795776 C 285.804443 19.92984 292.559418 21.138885 297.879059 23.526215 C 301.275177 25.050293 305.456665 27.89505 307.171265 29.847839 C 308.885834 31.800629 311.047699 35.221252 311.975372 37.449188 C 313.259186 40.53244 313.631622 44.257019 313.534668 53.042542 C 313.410797 64.266266 313.30954 64.763489 309.869263 71.042542 C 307.662354 75.070557 304.858124 78.526337 302.415649 80.227997 C 300.262024 81.728394 296.924988 83.413391 295 83.972412 C 293.075012 84.531464 282.950012 85.001373 272.5 85.016663 C 255.994461 85.040833 253.202713 85.273285 251.235626 86.787384 C 248.971268 88.530273 248.971268 88.530273 249.235626 120.407684 C 249.5 152.285095 249.5 152.285095 252.25032 154.338043 C 254.095688 155.715485 256.255005 156.316956 258.812927 156.166046 C 260.909698 156.042328 267.144867 156.81723 272.668915 157.888062 C 278.192932 158.958893 286.939758 161.249146 292.106293 162.977509 C 297.272827 164.705872 305.774994 168.133667 311 170.594849 C 316.225006 173.056061 323.200012 176.711182 326.5 178.717407 C 329.799988 180.723633 335.649994 184.686737 339.5 187.524353 C 343.350006 190.361938 349.649902 195.548553 353.499786 199.05011 C 357.34967 202.551697 363.149292 208.585358 366.387848 212.458313 C 369.626434 216.331238 374.978271 223.515808 378.280884 228.424011 C 381.583466 233.332214 386.674347 242.332214 389.593964 248.424011 C 392.51358 254.515808 396.264893 263.588196 397.930206 268.584869 C 399.59552 273.581543 401.671356 281.006561 402.543213 285.084869 C 403.415039 289.163208 404.405853 295.875 404.745026 300 C 405.084167 304.125 405.538147 312.674988 405.753815 319 C 405.993683 326.033844 405.735809 331.163879 405.089874 332.209412 C 404.509003 333.149567 404.28833 335.191589 404.599457 336.747192 C 404.910553 338.302856 404.418213 344.058594 403.50531 349.537811 C 402.592407 355.017029 400.08725 364.812775 397.938324 371.306152 C 395.789398 377.799561 392.040588 387.249542 389.607666 392.306152 C 387.174713 397.362762 382.839539 405.100006 379.973907 409.5 C 377.108276 413.899994 372.38382 420.424988 369.475067 424 C 366.566315 427.575012 362.225525 432.524994 359.828827 435 C 357.432129 437.475006 352.641937 442.053345 349.183929 445.174103 C 345.725922 448.294861 338.53241 453.781372 333.198334 457.366364 C 327.864258 460.951355 318.774994 466.124054 313 468.861237 C 307.225006 471.59845 298.53479 475.221558 293.688416 476.912598 C 288.842041 478.603638 280.292023 480.93219 274.688416 482.087097 C 266.544189 483.765656 260.28656 484.231476 243.5 484.408783 Z M 256.926422 467.87973 C 258.341888 467.432373 265.125 465.892944 272 464.45874 C 278.875 463.024567 288.549988 460.266785 293.5 458.330353 C 298.450012 456.393921 306.593658 452.569763 311.597015 449.832245 C 316.600372 447.094696 324.58786 441.932526 329.347015 438.360718 C 334.248108 434.682373 338 431.133057 338 430.174927 C 338 429.244568 327.885223 418.362091 315.522705 405.991669 C 303.160217 393.621246 292.365021 383.055359 291.533447 382.511871 C 290.458252 381.809235 289.223846 382.042542 287.260712 383.319458 C 285.74231 384.307129 280.899994 386.881104 276.5 389.039429 C 272.100006 391.197754 265.350006 393.706329 261.5 394.614044 C 257.649994 395.521729 253.375 396.850189 252 397.566162 C 249.643173 398.793335 249.483368 399.399445 249.209625 408.1492 C 248.938446 416.816803 249.070694 417.547028 251.209625 419.192993 C 253.039642 420.601257 255.509979 420.960754 263.5 420.981506 C 271.549225 421.002411 274.110657 421.379852 276.630371 422.91629 C 279.036591 424.383545 279.861877 425.691223 280.197845 428.569 C 280.525604 431.376404 280.104309 432.929779 278.51358 434.779114 C 276.484894 437.137604 275.925964 437.237885 265.720276 437.07486 C 256.091217 436.921051 254.752792 437.122894 252.024155 439.140259 C 249 441.376129 249 441.376129 249 452.900482 C 249 464.19751 249.052811 464.46698 251.676422 466.55899 C 253.716263 468.185486 254.964981 468.499634 256.926422 467.87973 Z M 228.285187 467.897461 C 229.267029 467.953857 231.179535 467.273254 232.535187 466.384979 C 234.922409 464.820831 235 464.401764 235 453.073059 C 235 441.376129 235 441.376129 231.975845 439.140259 C 229.247208 437.122894 227.908783 436.921051 218.279739 437.07486 C 208.074036 437.237885 207.515106 437.137604 205.486435 434.779114 C 203.895706 432.929779 203.474396 431.376404 203.802155 428.569 C 204.138107 425.691223 204.963425 424.383545 207.369614 422.91629 C 209.885666 421.38208 212.420319 421.006744 220.285187 421.003723 C 227.603821 421.000946 230.691666 420.592896 232.535187 419.384979 C 234.861526 417.860718 235 417.249207 235 408.5 C 235 399.975037 234.819168 399.115631 232.75 397.806824 C 231.512497 397.024078 228.195435 395.868622 225.378738 395.239136 C 222.562057 394.60968 217.263321 392.895996 213.603806 391.431 C 209.944275 389.966003 204.167374 386.968781 200.766235 384.770508 C 196.659866 382.116455 194.140869 381.06366 193.268234 381.636841 C 192.545471 382.111572 181.38945 393.071411 168.477066 405.992004 C 155.560028 418.917267 145 430.278931 145 431.251221 C 145 432.311371 148.454239 435.572601 153.633789 439.402527 C 158.38237 442.913818 166.369873 447.950623 171.383789 450.595428 C 176.397705 453.240234 183.649994 456.626526 187.5 458.120483 C 191.350006 459.614441 198.324997 461.822754 203 463.027863 C 207.675003 464.232941 214.875 465.798553 219 466.506958 C 223.125 467.215363 227.303329 467.841095 228.285187 467.897461 Z M 130.780914 417 C 131.734833 417 143.536865 405.967957 157.00766 392.484314 C 181.5 367.968658 181.5 367.968658 179.584793 364.734314 C 178.531433 362.955444 176.386353 359.185913 174.817932 356.357544 C 173.249527 353.529175 171.042664 348.579193 169.913818 345.357544 C 168.784958 342.135895 167.606674 337.924988 167.295395 336 C 166.984116 334.075012 166.045563 331.712494 165.209732 330.75 C 163.818573 329.148041 160.840134 329 130 329 C 97.625084 329 96.239601 329.077759 94.50724 330.992004 C 92.768341 332.913452 92.78199 333.395538 94.8927 344.606293 C 96.096199 350.998535 98.399681 360.345581 100.011536 365.377502 C 101.623398 370.409363 104.986008 378.725647 107.484001 383.858032 C 109.982002 388.990448 113.974747 396.184509 116.356773 399.844849 C 118.738792 403.505188 122.568451 408.862488 124.867119 411.75 C 127.165779 414.637512 129.826981 417 130.780914 417 Z M 351.638245 416 C 352.273254 416 354.175842 414.424835 355.86618 412.499634 C 357.556549 410.574402 361.145599 405.730042 363.841858 401.734375 C 366.538116 397.738708 370.827179 390.321899 373.373138 385.252563 C 375.919098 380.183258 379.114685 372.721558 380.474396 368.671021 C 381.834106 364.620483 383.896484 357.299927 385.057465 352.403198 C 386.218414 347.506439 387.417206 340.920532 387.721405 337.767883 C 388.09491 333.897217 387.865448 331.542786 387.014832 330.517883 C 385.936981 329.219147 381.180176 329 354.068695 329 C 329.595032 329 321.976257 329.296875 320.598602 330.30426 C 319.617584 331.021576 318.437378 333.629486 317.975891 336.099609 C 317.514435 338.569702 315.981018 343.66153 314.568298 347.414734 C 313.155609 351.167969 310.312286 356.997559 308.249878 360.369385 C 306.187439 363.741211 304.5 367.283813 304.5 368.241821 C 304.5 369.19986 314.846344 380.337341 327.491852 392.991852 C 340.13736 405.646332 351.003235 416 351.638245 416 Z M 229.315735 377.929535 C 230.314392 377.968292 232.001892 377.53418 233.065735 376.964813 C 234.849792 376.01001 235 374.731384 235 360.5 C 235 346.589111 234.820435 344.974243 233.17569 344.094025 C 231.642319 343.273376 229.452866 345.021118 219.447372 355.052765 C 207.650284 366.880676 207.561157 367.004944 209.521698 368.892456 C 210.609756 369.940002 213.500397 371.796753 215.945328 373.018524 C 218.390259 374.240295 221.99025 375.829254 223.945328 376.5495 C 225.900391 377.269775 228.317078 377.890778 229.315735 377.929535 Z M 256.942017 377.519318 C 259.385132 377.2258 264.296875 375.526367 267.857025 373.742798 C 271.417175 371.959259 274.814148 369.715393 275.405823 368.75647 C 276.317047 367.279633 274.658691 365.185242 264.565125 355.065308 C 254.54892 345.022919 252.357712 343.273376 250.82431 344.094025 C 249.179688 344.974182 249 346.588654 249 360.485474 C 249 374.089905 249.205566 376.027039 250.75 376.976807 C 251.712494 377.568726 254.498901 377.812866 256.942017 377.519318 Z M 289.578705 354 C 290.189941 354 291.382324 353.212494 292.228516 352.25 C 293.074677 351.287506 294.788025 348.475006 296.036011 346 C 297.283966 343.524994 298.893768 339.274902 299.613373 336.555298 C 300.55835 332.983826 300.62085 331.248077 299.838409 330.305298 C 299.034363 329.336487 294.842529 329 283.577545 329 C 272.987305 329 268.032135 329.367859 267.182861 330.217163 C 266.226654 331.17334 268.377808 333.853271 277.216522 342.717163 C 283.40451 348.922729 288.967468 354 289.578705 354 Z M 195.112244 352.804443 C 196.147247 352.637024 201.70311 347.800293 207.458603 342.056152 C 215.512329 334.018372 217.673416 331.311401 216.839127 330.306152 C 216.039825 329.343079 212.011047 329 201.5 329 C 190.095383 329 186.997772 329.297729 186.009094 330.489044 C 185.228134 331.430054 185.014008 333.261108 185.427307 335.464233 C 185.787018 337.381592 186.781769 340.649048 187.637894 342.725189 C 188.494003 344.801331 190.102554 347.987 191.212448 349.804443 C 192.544571 351.985809 193.87001 353.005432 195.112244 352.804443 Z M 129.57605 313 C 161.905563 313 162.980316 312.9375 164.83197 310.949982 C 165.882416 309.822449 167.014679 306.909576 167.348114 304.476868 C 167.681549 302.044189 169.305695 296.554199 170.957336 292.276917 C 172.608963 287.999603 175.563904 282.068359 177.52388 279.096313 C 179.483841 276.124298 180.955276 273.084717 180.793732 272.341675 C 180.632172 271.598633 169.703522 260.19281 156.507813 246.995346 C 143.312103 233.797913 131.772278 223 130.863724 223 C 129.955185 223 126.723274 226.262512 123.681694 230.25 C 120.640121 234.237488 116.122704 240.805237 113.64299 244.845001 C 111.163284 248.88475 107.322395 256.321716 105.107681 261.371613 C 102.892975 266.421509 99.930023 274.816254 98.523354 280.026611 C 97.116684 285.237 95.28669 293.660339 94.456688 298.745178 C 93.075294 307.20813 93.086472 308.202332 94.588814 310.495178 C 96.230019 313 96.230019 313 129.57605 313 Z M 202.119797 313 C 215.433472 313 217.02832 312.815613 217.906464 311.174774 C 218.726181 309.643127 217.123123 307.592438 207.939468 298.424774 C 201.920364 292.416138 196.117508 287.358948 195.04425 287.186523 C 193.53096 286.94342 192.375458 288.290466 189.897278 293.186523 C 188.139694 296.658936 186.109604 301.732025 185.385941 304.460052 C 184.227173 308.828369 184.263458 309.633636 185.690094 311.210052 C 187.107697 312.776489 189.159271 313 202.119797 313 Z M 283.05661 313 C 298.664825 313 299.067108 312.946777 300.067047 310.75 C 300.837952 309.056335 300.594269 306.892822 299.081482 302 C 297.976135 298.424988 295.695801 293.33139 294.014069 290.680878 C 292.214935 287.845337 290.349304 285.993103 289.481476 286.180878 C 288.670288 286.356384 282.856476 291.641357 276.56189 297.925232 C 266.950134 307.520691 265.273621 309.642761 266.093781 311.175232 C 266.976593 312.824768 268.605591 313 283.05661 313 Z M 353.583557 313 C 381.660645 313 385.030579 312.826569 386.553894 311.303253 C 387.952972 309.904175 388.141754 308.434967 387.629944 302.928314 C 387.288574 299.25531 385.711548 291.131348 384.125427 284.875061 C 382.539307 278.618774 379.847565 269.89917 378.143799 265.498199 C 376.440063 261.097229 372.738647 253.44722 369.918457 248.498199 C 367.098267 243.549194 362.332916 236.211853 359.328766 232.193024 C 356.324615 228.174194 353.177734 224.621704 352.335693 224.298584 C 351.277924 223.89267 343.556793 230.941742 327.35434 247.105545 C 309.761475 264.656433 303.994965 270.999573 304.268372 272.5 C 304.468811 273.600006 305.82135 276.299988 307.274017 278.5 C 308.726685 280.700012 311.292847 285.546509 312.976654 289.27002 C 314.660431 292.99353 316.739014 299.068542 317.595703 302.77002 C 318.452423 306.471497 319.863586 310.287506 320.731659 311.25 C 322.170837 312.845703 325.067108 313 353.583557 313 Z M 233.174774 295.906464 C 234.821121 295.025391 235 293.411865 235 279.443359 C 235 264.344757 234.943573 263.931396 232.745468 262.929871 C 231.051163 262.157898 228.947937 262.382904 224.281281 263.835327 C 220.865952 264.898285 216.003738 266.979858 213.476349 268.460999 C 210.171677 270.397644 208.967987 271.693481 209.190536 273.074829 C 209.360748 274.131287 214.416153 279.920349 220.424774 285.939453 C 229.592438 295.123108 231.643112 296.726196 233.174774 295.906464 Z M 264.271942 285.20163 C 270.74649 278.765747 275.921509 272.869354 275.771942 272.098572 C 275.622375 271.327759 272.903229 269.259796 269.72937 267.503052 C 266.555542 265.746338 261.514709 263.762085 258.527527 263.093567 C 254.544693 262.202271 252.550064 262.17041 251.048141 262.974243 C 249.119934 264.006165 249 264.973083 249 279.485474 C 249 293.118439 249.202316 295.016388 250.75 295.901947 C 252.207489 296.735901 254.467636 294.947388 264.271942 285.20163 Z M 195.051559 258.681641 C 195.904907 258.466797 198.379913 257.119629 200.551559 255.687912 C 202.723206 254.256195 207.490479 251.732544 211.145508 250.079819 C 214.800552 248.427078 220.875549 246.318802 224.645508 245.394775 C 228.415482 244.470734 232.287506 243.034149 233.25 242.202362 C 234.850006 240.819641 235 237.893768 235 208.067261 C 235 176.327332 234.944046 175.396576 232.932571 173.674286 C 230.952515 171.978912 230.371475 171.988464 219.182571 173.899872 C 212.757156 174.997528 203.449997 177.052124 198.5 178.465637 C 193.550003 179.87915 183.199997 184.174011 175.5 188.009735 C 167.800003 191.84549 157.899994 197.688873 153.5 200.995056 C 148.196167 204.980377 145.5 207.676636 145.5 208.995331 C 145.5 210.257568 154.269653 219.770081 169.5 235.02832 C 184.63472 250.19075 194.07312 258.927979 195.051559 258.681641 Z M 289.507965 257.950958 C 290.829926 257.983246 299.5401 249.970398 315.00177 234.49823 C 335.095673 214.390656 338.331238 210.743988 337.405182 209.24823 C 336.809906 208.286713 333.033081 204.954346 329.012268 201.842987 C 324.991455 198.731659 318.393433 194.293152 314.350006 191.979706 C 310.30661 189.666229 302.896423 186.004944 297.882965 183.843536 C 292.869476 181.682098 283.307343 178.559174 276.633789 176.903656 C 269.960205 175.248138 262.120911 173.627899 259.213104 173.303101 C 256.11499 172.957062 252.906509 173.177185 251.46312 173.834839 C 249 174.957123 249 174.957123 249 207.863556 C 249 240.769989 249 240.769989 251.25 242.207153 C 252.487503 242.997589 256.619049 244.401611 260.431244 245.327225 C 264.243408 246.252823 270.423035 248.420837 274.163727 250.145035 C 277.904419 251.869232 282.435364 254.319885 284.232483 255.590927 C 286.029633 256.862 288.403595 257.924011 289.507965 257.950958 Z M 242.727966 67.725891 C 289.955933 67.5 289.955933 67.5 292.58017 64.875061 C 294.200714 63.254089 295.706207 60.091461 296.516388 56.606201 C 297.457764 52.556488 297.546906 49.942871 296.831909 47.353424 C 296.283875 45.36853 294.799194 42.708313 293.532684 41.441772 C 292.266144 40.175232 289.490662 38.684479 287.36496 38.128998 C 285.239227 37.573486 265.049988 34.548248 242.5 31.40625 C 219.949997 28.264252 198.72493 25.649963 195.333176 25.596741 C 190.06691 25.51413 188.771515 25.865082 186.462646 28 C 184.975616 29.375 182.913193 32.449799 181.879471 34.832916 C 180.816605 37.283234 180 41.483429 180 44.5 C 180 47.662109 180.840576 51.802155 182.064301 54.667084 C 183.199661 57.325195 185.337158 60.792297 186.814301 62.371796 C 188.291428 63.951263 190.850006 65.852905 192.5 66.597656 C 194.910736 67.685791 204.776505 67.90741 242.727966 67.725891 Z"/>
</svg>
