<?xml version="1.0" encoding="UTF-8"?>
<!-- Generated by Pixelmator Pro 2.4.2 -->
<svg width="330" height="477" viewBox="0 0 330 477" xmlns="http://www.w3.org/2000/svg" xmlns:xlink="http://www.w3.org/1999/xlink">
    <path id="Tyche" fill="#383736" fill-opacity="0.772653" fill-rule="evenodd" stroke-width="6" stroke="white" d="M 167.5 476.408783 C 155.949997 476.530762 143.800003 476.269928 140.5 475.829132 C 137.199997 475.388367 131.543533 474.359528 127.930084 473.542847 C 124.316635 472.726166 116.666641 470.433319 110.930084 468.447571 C 105.193542 466.461853 96.449997 462.856781 91.5 460.436279 C 86.550003 458.015808 79.125 453.856415 75 451.193207 C 70.875 448.530029 64.038437 443.556396 59.807632 440.140717 C 55.576828 436.725037 48.59655 430.169495 44.295891 425.572876 C 39.995232 420.976196 33.949242 413.679382 30.860374 409.357666 C 27.7715 405.03595 23.143867 397.856873 20.576744 393.404205 C 18.009628 388.951508 13.920418 380.355225 11.489624 374.301392 C 9.058823 368.247528 5.972099 359.065643 4.630234 353.897186 C 3.288368 348.728729 1.765213 340.225006 1.245438 335 C 0.72567 329.774994 0.3591 317.399994 0.430847 307.5 C 0.522896 294.798737 1.080536 286.878235 2.32518 280.59375 C 3.295311 275.695343 5.641266 266.886078 7.538414 261.017639 C 9.435555 255.14917 13.270065 245.680649 16.059547 239.97644 C 18.849037 234.272247 23.497589 225.981506 26.389671 221.552582 C 29.281754 217.123657 34.059998 210.575012 37.008003 207 C 39.956001 203.424988 45.501236 197.432465 49.330757 193.683228 C 53.160278 189.93399 59.759125 184.228302 63.994888 181.003906 C 68.230637 177.77948 75.109131 173.069336 79.280411 170.536896 C 83.451691 168.004456 90.157532 164.414795 94.182281 162.559906 C 98.207031 160.704987 106.090958 157.592834 111.702148 155.644012 C 117.313324 153.69519 125.41333 151.358704 129.702148 150.451813 C 133.990967 149.544922 140.217102 148.654785 143.53801 148.473724 C 146.858917 148.292664 150.90892 147.826569 152.53801 147.437958 C 154.167099 147.049347 156.287506 146.047089 157.25 145.210693 C 158.847946 143.822144 159 140.933105 159 111.960022 C 159 80.230011 159 80.230011 156.535187 78.615021 C 154.476151 77.265869 150.813171 76.999878 134.285187 76.999207 C 114.5 76.998413 114.5 76.998413 108.324112 74.076721 C 104.927368 72.469788 100.328079 69.27948 98.10347 66.987183 C 95.878845 64.694855 92.860443 60.370178 91.395905 57.37677 C 89.132004 52.749512 88.657806 50.227783 88.230423 40.54306 C 87.953949 34.277924 88.084015 28.3302 88.519485 27.325958 C 88.954941 26.321686 89.438293 24.07428 89.593597 22.331696 C 89.748917 20.589142 90.765762 17.439148 91.853256 15.331696 C 92.940765 13.224274 95.556168 9.834717 97.665268 7.799347 C 99.774368 5.764008 103.524994 3.215942 106 2.137024 C 109.706924 0.521088 112.262405 0.233612 120.5 0.50589 C 126 0.687683 149.670959 3.518127 173.102142 6.795776 C 209.804443 11.92984 216.559418 13.138885 221.879059 15.526215 C 225.275177 17.050293 229.456665 19.89505 231.171265 21.847839 C 232.885834 23.800629 235.047699 27.221252 235.975372 29.449188 C 237.259186 32.53244 237.631622 36.257019 237.534668 45.042542 C 237.410797 56.266266 237.30954 56.763489 233.869263 63.042542 C 231.662354 67.070557 228.858124 70.526337 226.415649 72.227997 C 224.262024 73.728394 220.924988 75.413391 219 75.972412 C 217.075012 76.531464 206.950012 77.001373 196.5 77.016663 C 179.994461 77.040833 177.202713 77.273285 175.235626 78.787384 C 172.971268 80.530273 172.971268 80.530273 173.235626 112.407684 C 173.5 144.285095 173.5 144.285095 176.25032 146.338043 C 178.095688 147.715485 180.255005 148.316956 182.812927 148.166046 C 184.909698 148.042328 191.144867 148.81723 196.668915 149.888062 C 202.192932 150.958893 210.939758 153.249146 216.106293 154.977509 C 221.272827 156.705872 229.774994 160.133667 235 162.594849 C 240.225006 165.056061 247.200012 168.711182 250.5 170.717407 C 253.799988 172.723633 259.649994 176.686737 263.5 179.524353 C 267.350006 182.361938 273.649902 187.548553 277.499786 191.05011 C 281.34967 194.551697 287.149292 200.585358 290.387848 204.458313 C 293.626434 208.331238 298.978271 215.515808 302.280884 220.424011 C 305.583466 225.332214 310.674347 234.332214 313.593964 240.424011 C 316.51358 246.515808 320.264893 255.588196 321.930206 260.584869 C 323.59552 265.581543 325.671356 273.006561 326.543213 277.084869 C 327.415039 281.163208 328.405853 287.875 328.745026 292 C 329.084167 296.125 329.538147 304.674988 329.753815 311 C 329.993683 318.033844 329.735809 323.163879 329.089874 324.209412 C 328.509003 325.149567 328.28833 327.191589 328.599457 328.747192 C 328.910553 330.302856 328.418213 336.058594 327.50531 341.537811 C 326.592407 347.017029 324.08725 356.812775 321.938324 363.306152 C 319.789398 369.799561 316.040588 379.249542 313.607666 384.306152 C 311.174713 389.362762 306.839539 397.100006 303.973907 401.5 C 301.108276 405.899994 296.38382 412.424988 293.475067 416 C 290.566315 419.575012 286.225525 424.524994 283.828827 427 C 281.432129 429.475006 276.641937 434.053345 273.183929 437.174103 C 269.725922 440.294861 262.53241 445.781372 257.198334 449.366364 C 251.864258 452.951355 242.774994 458.124054 237 460.861237 C 231.225006 463.59845 222.53479 467.221558 217.688416 468.912598 C 212.842041 470.603638 204.292023 472.93219 198.688416 474.087097 C 190.544189 475.765656 184.28656 476.231476 167.5 476.408783 Z M 180.926422 459.87973 C 182.341888 459.432373 189.125 457.892944 196 456.45874 C 202.875 455.024567 212.549988 452.266785 217.5 450.330353 C 222.450012 448.393921 230.593658 444.569763 235.597015 441.832245 C 240.600372 439.094696 248.58786 433.932526 253.347015 430.360718 C 258.248108 426.682373 262 423.133057 262 422.174927 C 262 421.244568 251.885223 410.362091 239.522705 397.991669 C 227.160217 385.621246 216.365021 375.055359 215.533447 374.511871 C 214.458252 373.809235 213.223846 374.042542 211.260712 375.319458 C 209.74231 376.307129 204.899994 378.881104 200.5 381.039429 C 196.100006 383.197754 189.350006 385.706329 185.5 386.614044 C 181.649994 387.521729 177.375 388.850189 176 389.566162 C 173.643173 390.793335 173.483368 391.399445 173.209625 400.1492 C 172.938446 408.816803 173.070694 409.547028 175.209625 411.192993 C 177.039642 412.601257 179.509979 412.960754 187.5 412.981506 C 195.549225 413.002411 198.110657 413.379852 200.630371 414.91629 C 203.036591 416.383545 203.861877 417.691223 204.197845 420.569 C 204.525604 423.376404 204.104309 424.929779 202.51358 426.779114 C 200.484894 429.137604 199.925964 429.237885 189.720276 429.07486 C 180.091217 428.921051 178.752792 429.122894 176.024155 431.140259 C 173 433.376129 173 433.376129 173 444.900482 C 173 456.19751 173.052811 456.46698 175.676422 458.55899 C 177.716263 460.185486 178.964981 460.499634 180.926422 459.87973 Z M 152.285187 459.897461 C 153.267029 459.953857 155.179535 459.273254 156.535187 458.384979 C 158.922409 456.820831 159 456.401764 159 445.073059 C 159 433.376129 159 433.376129 155.975845 431.140259 C 153.247208 429.122894 151.908783 428.921051 142.279739 429.07486 C 132.074036 429.237885 131.515106 429.137604 129.486435 426.779114 C 127.895706 424.929779 127.474396 423.376404 127.802155 420.569 C 128.138107 417.691223 128.963425 416.383545 131.369614 414.91629 C 133.885666 413.38208 136.420319 413.006744 144.285187 413.003723 C 151.603821 413.000946 154.691666 412.592896 156.535187 411.384979 C 158.861526 409.860718 159 409.249207 159 400.5 C 159 391.975037 158.819168 391.115631 156.75 389.806824 C 155.512497 389.024078 152.195435 387.868622 149.378738 387.239136 C 146.562057 386.60968 141.263321 384.895996 137.603806 383.431 C 133.944275 381.966003 128.167374 378.968781 124.766235 376.770508 C 120.659866 374.116455 118.140869 373.06366 117.268234 373.636841 C 116.545471 374.111572 105.38945 385.071411 92.477066 397.992004 C 79.560028 410.917267 69 422.278931 69 423.251221 C 69 424.311371 72.454239 427.572601 77.633789 431.402527 C 82.38237 434.913818 90.369873 439.950623 95.383789 442.595428 C 100.397705 445.240234 107.649994 448.626526 111.5 450.120483 C 115.350006 451.614441 122.324997 453.822754 127 455.027863 C 131.675003 456.232941 138.875 457.798553 143 458.506958 C 147.125 459.215363 151.303329 459.841095 152.285187 459.897461 Z M 54.780914 409 C 55.734833 409 67.536865 397.967957 81.00766 384.484314 C 105.5 359.968658 105.5 359.968658 103.584793 356.734314 C 102.531433 354.955444 100.386353 351.185913 98.817932 348.357544 C 97.249527 345.529175 95.042664 340.579193 93.913818 337.357544 C 92.784958 334.135895 91.606674 329.924988 91.295395 328 C 90.984116 326.075012 90.045563 323.712494 89.209732 322.75 C 87.818573 321.148041 84.840134 321 54 321 C 21.625084 321 20.239601 321.077759 18.50724 322.992004 C 16.768341 324.913452 16.78199 325.395538 18.8927 336.606293 C 20.096199 342.998535 22.399681 352.345581 24.011536 357.377502 C 25.623398 362.409363 28.986008 370.725647 31.484001 375.858032 C 33.982002 380.990448 37.974747 388.184509 40.356773 391.844849 C 42.738792 395.505188 46.568451 400.862488 48.867119 403.75 C 51.165779 406.637512 53.826981 409 54.780914 409 Z M 275.638245 408 C 276.273254 408 278.175842 406.424835 279.86618 404.499634 C 281.556549 402.574402 285.145599 397.730042 287.841858 393.734375 C 290.538116 389.738708 294.827179 382.321899 297.373138 377.252563 C 299.919098 372.183258 303.114685 364.721558 304.474396 360.671021 C 305.834106 356.620483 307.896484 349.299927 309.057465 344.403198 C 310.218414 339.506439 311.417206 332.920532 311.721405 329.767883 C 312.09491 325.897217 311.865448 323.542786 311.014832 322.517883 C 309.936981 321.219147 305.180176 321 278.068695 321 C 253.595032 321 245.976257 321.296875 244.598602 322.30426 C 243.617584 323.021576 242.437378 325.629486 241.975891 328.099609 C 241.514435 330.569702 239.981018 335.66153 238.568298 339.414734 C 237.155609 343.167969 234.312286 348.997559 232.249878 352.369385 C 230.187439 355.741211 228.5 359.283813 228.5 360.241821 C 228.5 361.19986 238.846344 372.337341 251.491852 384.991852 C 264.13736 397.646332 275.003235 408 275.638245 408 Z M 153.315735 369.929535 C 154.314392 369.968292 156.001892 369.53418 157.065735 368.964813 C 158.849792 368.01001 159 366.731384 159 352.5 C 159 338.589111 158.820435 336.974243 157.17569 336.094025 C 155.642319 335.273376 153.452866 337.021118 143.447372 347.052765 C 131.650284 358.880676 131.561157 359.004944 133.521698 360.892456 C 134.609756 361.940002 137.500397 363.796753 139.945328 365.018524 C 142.390259 366.240295 145.99025 367.829254 147.945328 368.5495 C 149.900391 369.269775 152.317078 369.890778 153.315735 369.929535 Z M 180.942017 369.519318 C 183.385132 369.2258 188.296875 367.526367 191.857025 365.742798 C 195.417175 363.959259 198.814148 361.715393 199.405823 360.75647 C 200.317047 359.279633 198.658691 357.185242 188.565125 347.065308 C 178.54892 337.022919 176.357712 335.273376 174.82431 336.094025 C 173.179688 336.974182 173 338.588654 173 352.485474 C 173 366.089905 173.205566 368.027039 174.75 368.976807 C 175.712494 369.568726 178.498901 369.812866 180.942017 369.519318 Z M 213.578705 346 C 214.189941 346 215.382324 345.212494 216.228516 344.25 C 217.074677 343.287506 218.788025 340.475006 220.036011 338 C 221.283966 335.524994 222.893768 331.274902 223.613373 328.555298 C 224.55835 324.983826 224.62085 323.248077 223.838409 322.305298 C 223.034363 321.336487 218.842529 321 207.577545 321 C 196.987305 321 192.032135 321.367859 191.182861 322.217163 C 190.226654 323.17334 192.377808 325.853271 201.216522 334.717163 C 207.40451 340.922729 212.967468 346 213.578705 346 Z M 119.112244 344.804443 C 120.147247 344.637024 125.70311 339.800293 131.458603 334.056152 C 139.512329 326.018372 141.673416 323.311401 140.839127 322.306152 C 140.039825 321.343079 136.011047 321 125.5 321 C 114.095383 321 110.997772 321.297729 110.009094 322.489044 C 109.228134 323.430054 109.014008 325.261108 109.427307 327.464233 C 109.787018 329.381592 110.781769 332.649048 111.637894 334.725189 C 112.494003 336.801331 114.102554 339.987 115.212448 341.804443 C 116.544571 343.985809 117.87001 345.005432 119.112244 344.804443 Z M 53.57605 305 C 85.905563 305 86.980316 304.9375 88.83197 302.949982 C 89.882416 301.822449 91.014679 298.909576 91.348114 296.476868 C 91.681549 294.044189 93.305695 288.554199 94.957336 284.276917 C 96.608963 279.999603 99.563904 274.068359 101.52388 271.096313 C 103.483841 268.124298 104.955276 265.084717 104.793732 264.341675 C 104.632172 263.598633 93.703522 252.192795 80.507813 238.995346 C 67.312103 225.797913 55.772278 215 54.863724 215 C 53.955185 215 50.723274 218.262512 47.681694 222.25 C 44.640121 226.237488 40.122704 232.805237 37.64299 236.845001 C 35.163284 240.88475 31.322395 248.321716 29.107681 253.371613 C 26.892975 258.421509 23.930023 266.816254 22.523354 272.026611 C 21.116684 277.237 19.28669 285.660339 18.456688 290.745178 C 17.075294 299.20813 17.086472 300.202332 18.588814 302.495178 C 20.230019 305 20.230019 305 53.57605 305 Z M 126.119797 305 C 139.433472 305 141.02832 304.815613 141.906464 303.174774 C 142.726181 301.643127 141.123123 299.592438 131.939468 290.424774 C 125.920364 284.416138 120.117508 279.358948 119.04425 279.186523 C 117.53096 278.94342 116.375458 280.290466 113.897278 285.186523 C 112.139694 288.658936 110.109604 293.732025 109.385941 296.460052 C 108.227173 300.828369 108.263458 301.633636 109.690094 303.210052 C 111.107697 304.776489 113.159271 305 126.119797 305 Z M 207.05661 305 C 222.664825 305 223.067108 304.946777 224.067047 302.75 C 224.837952 301.056335 224.594269 298.892822 223.081482 294 C 221.976135 290.424988 219.695801 285.33139 218.014069 282.680878 C 216.214935 279.845337 214.349304 277.993103 213.481476 278.180878 C 212.670288 278.356384 206.856476 283.641357 200.56189 289.925232 C 190.950134 299.520691 189.273621 301.642761 190.093781 303.175232 C 190.976593 304.824768 192.605591 305 207.05661 305 Z M 277.583557 305 C 305.660645 305 309.030579 304.826569 310.553894 303.303253 C 311.952972 301.904175 312.141754 300.434967 311.629944 294.928314 C 311.288574 291.25531 309.711548 283.131348 308.125427 276.875061 C 306.539307 270.618774 303.847565 261.89917 302.143799 257.498199 C 300.440063 253.097214 296.738647 245.44722 293.918457 240.498199 C 291.098267 235.549194 286.332916 228.211853 283.328766 224.193024 C 280.324615 220.174194 277.177734 216.621704 276.335693 216.298584 C 275.277924 215.89267 267.556793 222.941742 251.35434 239.105545 C 233.761475 256.656433 227.994965 262.999573 228.268372 264.5 C 228.468811 265.600006 229.82135 268.299988 231.274017 270.5 C 232.726685 272.700012 235.292847 277.546509 236.976654 281.27002 C 238.660431 284.99353 240.739014 291.068542 241.595703 294.77002 C 242.452423 298.471497 243.863586 302.287506 244.731659 303.25 C 246.170837 304.845703 249.067108 305 277.583557 305 Z M 157.174774 287.906464 C 158.821121 287.025391 159 285.411865 159 271.443359 C 159 256.344757 158.943573 255.931412 156.745468 254.929886 C 155.051163 254.157913 152.947937 254.382904 148.281281 255.835327 C 144.865952 256.898285 140.003738 258.979858 137.476349 260.460999 C 134.171677 262.397644 132.967987 263.693481 133.190536 265.074829 C 133.360748 266.131287 138.416153 271.920349 144.424774 277.939453 C 153.592438 287.123108 155.643112 288.726196 157.174774 287.906464 Z M 188.271942 277.20163 C 194.74649 270.765747 199.921509 264.869354 199.771942 264.098572 C 199.622375 263.327759 196.903229 261.259796 193.72937 259.503052 C 190.555542 257.746338 185.514709 255.76207 182.527527 255.093567 C 178.544693 254.202255 176.550064 254.170425 175.048141 254.974243 C 173.119934 256.006165 173 256.973083 173 271.485474 C 173 285.118439 173.202316 287.016388 174.75 287.901947 C 176.207489 288.735901 178.467636 286.947388 188.271942 277.20163 Z M 119.051559 250.681656 C 119.904907 250.466812 122.379913 249.119629 124.551559 247.687912 C 126.723206 246.256195 131.490479 243.732544 135.145508 242.079819 C 138.800552 240.427078 144.875549 238.318802 148.645508 237.394775 C 152.415482 236.470734 156.287506 235.034149 157.25 234.202362 C 158.850006 232.819641 159 229.893768 159 200.067261 C 159 168.327332 158.944046 167.396576 156.932571 165.674286 C 154.952515 163.978912 154.371475 163.988464 143.182571 165.899872 C 136.757156 166.997528 127.449997 169.052124 122.5 170.465637 C 117.550003 171.87915 107.199997 176.174011 99.5 180.009735 C 91.800003 183.84549 81.899994 189.688873 77.5 192.995056 C 72.196167 196.980377 69.5 199.676636 69.5 200.995331 C 69.5 202.257568 78.269653 211.770081 93.5 227.02832 C 108.63472 242.19075 118.07312 250.927979 119.051559 250.681656 Z M 213.507965 249.950958 C 214.829926 249.983246 223.5401 241.970398 239.00177 226.49823 C 259.095673 206.390656 262.331238 202.743988 261.405182 201.24823 C 260.809906 200.286713 257.033081 196.954346 253.012268 193.842987 C 248.991455 190.731659 242.393433 186.293152 238.350006 183.979706 C 234.30661 181.666229 226.896423 178.004944 221.882965 175.843536 C 216.869476 173.682098 207.307343 170.559174 200.633789 168.903656 C 193.960205 167.248138 186.120911 165.627899 183.213104 165.303101 C 180.11499 164.957062 176.906509 165.177185 175.46312 165.834839 C 173 166.957123 173 166.957123 173 199.863556 C 173 232.769989 173 232.769989 175.25 234.207153 C 176.487503 234.997589 180.619049 236.401611 184.431244 237.327225 C 188.243408 238.252823 194.423035 240.420837 198.163727 242.145035 C 201.904419 243.869232 206.435364 246.319885 208.232483 247.590927 C 210.029633 248.861984 212.403595 249.923996 213.507965 249.950958 Z M 166.727966 59.725891 C 213.955933 59.5 213.955933 59.5 216.58017 56.875061 C 218.200714 55.254089 219.706207 52.091461 220.516388 48.606201 C 221.457764 44.556488 221.546906 41.942871 220.831909 39.353424 C 220.283875 37.36853 218.799194 34.708313 217.532684 33.441772 C 216.266144 32.175232 213.490662 30.684479 211.36496 30.128998 C 209.239227 29.573486 189.049988 26.548248 166.5 23.40625 C 143.949997 20.264252 122.72493 17.649963 119.333176 17.596741 C 114.06691 17.51413 112.771515 17.865082 110.462646 20 C 108.975616 21.375 106.913193 24.449799 105.879471 26.832916 C 104.816605 29.283234 104 33.483429 104 36.5 C 104 39.662109 104.840576 43.802155 106.064301 46.667084 C 107.199661 49.325195 109.337158 52.792297 110.814301 54.371796 C 112.291428 55.951263 114.850006 57.852905 116.5 58.597656 C 118.910736 59.685791 128.776505 59.90741 166.727966 59.725891 Z"/>
</svg>
